<?xml version="1.0" encoding="utf-8"?>
<!-- Generator: Adobe Illustrator 24.1.3, SVG Export Plug-In . SVG Version: 6.00 Build 0)  -->
<svg version="1.1" id="Layer_1" xmlns="http://www.w3.org/2000/svg" xmlns:xlink="http://www.w3.org/1999/xlink" x="0px" y="0px"
	 viewBox="0 0 44.46 44.46" style="enable-background:new 0 0 44.46 44.46;" xml:space="preserve">
<style type="text/css">
	.st0{clip-path:url(#SVGID_2_);fill:#15CAFF;}
</style>
<g>
	<defs>
		<rect id="SVGID_1_" width="44.46" height="44.46"/>
	</defs>
	<clipPath id="SVGID_2_">
		<use xlink:href="#SVGID_1_"  style="overflow:visible;"/>
	</clipPath>
	<path class="st0" d="M23.97,28.72c1.85,0,2.93-0.11,2.93-0.11c1.49-0.15,2.75,0.95,2.8,2.44l0.01,0.14
		c0.05,1.5-1.11,2.96-2.58,3.25c0,0-2.53,0.5-5.25,0.5c-7.24,0-10.11-3.84-10.11-12.98c0-8.6,3.01-12.44,10.26-12.44
		c2.82,0,5.11,0.47,5.11,0.47c1.47,0.3,2.63,1.78,2.57,3.27l-0.01,0.15c-0.05,1.5-1.31,2.6-2.8,2.45c0,0-1.13-0.12-2.98-0.12
		c-4.67,0-5.54,1.6-5.54,6.22C18.38,27.16,19.3,28.72,23.97,28.72 M33.36,1.93C32.3,0.87,30.21,0,28.71,0H15.75
		c-1.5,0-3.59,0.87-4.65,1.93L1.93,11.1C0.87,12.16,0,14.25,0,15.75v12.97c0,1.5,0.87,3.59,1.93,4.65l9.17,9.17
		c1.06,1.06,3.15,1.93,4.65,1.93h12.97c1.5,0,3.59-0.87,4.65-1.93l9.17-9.17c1.06-1.06,1.93-3.15,1.93-4.65V15.75
		c0-1.5-0.87-3.59-1.93-4.65L33.36,1.93z"/>
</g>
</svg>
